<mxfile host="app.diagrams.net" modified="2024-05-22T13:39:32.327Z" agent="Mozilla/5.0 (Windows NT 10.0; Win64; x64) AppleWebKit/537.36 (KHTML, like Gecko) Chrome/124.0.0.0 Safari/537.36" etag="AjEcPEJDjhwCWQxnKQ7H" version="24.4.6" type="github">
  <diagram name="第 1 页" id="NeMoH1M4-yNNgROmxgov">
    <mxGraphModel dx="1134" dy="589" grid="0" gridSize="10" guides="1" tooltips="1" connect="1" arrows="1" fold="1" page="1" pageScale="1" pageWidth="827" pageHeight="1169" math="0" shadow="0">
      <root>
        <mxCell id="0" />
        <mxCell id="1" parent="0" />
        <mxCell id="wn2-q3dEH-RJdqRPnM6W-14" style="edgeStyle=orthogonalEdgeStyle;rounded=0;orthogonalLoop=1;jettySize=auto;html=1;entryX=0;entryY=0.5;entryDx=0;entryDy=0;" edge="1" parent="1" source="wn2-q3dEH-RJdqRPnM6W-1" target="wn2-q3dEH-RJdqRPnM6W-2">
          <mxGeometry relative="1" as="geometry">
            <Array as="points">
              <mxPoint x="240" y="237" />
              <mxPoint x="240" y="132" />
            </Array>
          </mxGeometry>
        </mxCell>
        <mxCell id="wn2-q3dEH-RJdqRPnM6W-15" style="edgeStyle=orthogonalEdgeStyle;rounded=0;orthogonalLoop=1;jettySize=auto;html=1;entryX=0;entryY=0.5;entryDx=0;entryDy=0;" edge="1" parent="1" source="wn2-q3dEH-RJdqRPnM6W-1" target="wn2-q3dEH-RJdqRPnM6W-3">
          <mxGeometry relative="1" as="geometry" />
        </mxCell>
        <mxCell id="wn2-q3dEH-RJdqRPnM6W-16" style="edgeStyle=orthogonalEdgeStyle;rounded=0;orthogonalLoop=1;jettySize=auto;html=1;entryX=0;entryY=0.5;entryDx=0;entryDy=0;" edge="1" parent="1" source="wn2-q3dEH-RJdqRPnM6W-1" target="wn2-q3dEH-RJdqRPnM6W-4">
          <mxGeometry relative="1" as="geometry">
            <Array as="points">
              <mxPoint x="238" y="237" />
              <mxPoint x="238" y="342" />
            </Array>
          </mxGeometry>
        </mxCell>
        <mxCell id="wn2-q3dEH-RJdqRPnM6W-1" value="&lt;font style=&quot;font-size: 24px;&quot;&gt;权限模块&lt;/font&gt;" style="rounded=0;whiteSpace=wrap;html=1;" vertex="1" parent="1">
          <mxGeometry x="55" y="207" width="120" height="60" as="geometry" />
        </mxCell>
        <mxCell id="wn2-q3dEH-RJdqRPnM6W-2" value="&lt;font size=&quot;3&quot;&gt;普通用户&lt;/font&gt;" style="rounded=0;whiteSpace=wrap;html=1;" vertex="1" parent="1">
          <mxGeometry x="325" y="102" width="120" height="60" as="geometry" />
        </mxCell>
        <mxCell id="wn2-q3dEH-RJdqRPnM6W-18" style="edgeStyle=orthogonalEdgeStyle;rounded=0;orthogonalLoop=1;jettySize=auto;html=1;entryX=0;entryY=0.5;entryDx=0;entryDy=0;" edge="1" parent="1" source="wn2-q3dEH-RJdqRPnM6W-3" target="wn2-q3dEH-RJdqRPnM6W-7">
          <mxGeometry relative="1" as="geometry" />
        </mxCell>
        <mxCell id="wn2-q3dEH-RJdqRPnM6W-19" style="edgeStyle=orthogonalEdgeStyle;rounded=0;orthogonalLoop=1;jettySize=auto;html=1;entryX=0;entryY=0.5;entryDx=0;entryDy=0;" edge="1" parent="1" source="wn2-q3dEH-RJdqRPnM6W-3" target="wn2-q3dEH-RJdqRPnM6W-10">
          <mxGeometry relative="1" as="geometry" />
        </mxCell>
        <mxCell id="wn2-q3dEH-RJdqRPnM6W-3" value="&lt;font size=&quot;3&quot;&gt;版主&lt;/font&gt;" style="rounded=0;whiteSpace=wrap;html=1;" vertex="1" parent="1">
          <mxGeometry x="325" y="207" width="120" height="60" as="geometry" />
        </mxCell>
        <mxCell id="wn2-q3dEH-RJdqRPnM6W-20" style="edgeStyle=orthogonalEdgeStyle;rounded=0;orthogonalLoop=1;jettySize=auto;html=1;entryX=0;entryY=0.5;entryDx=0;entryDy=0;" edge="1" parent="1" source="wn2-q3dEH-RJdqRPnM6W-4" target="wn2-q3dEH-RJdqRPnM6W-11">
          <mxGeometry relative="1" as="geometry" />
        </mxCell>
        <mxCell id="wn2-q3dEH-RJdqRPnM6W-21" style="edgeStyle=orthogonalEdgeStyle;rounded=0;orthogonalLoop=1;jettySize=auto;html=1;" edge="1" parent="1" source="wn2-q3dEH-RJdqRPnM6W-4" target="wn2-q3dEH-RJdqRPnM6W-12">
          <mxGeometry relative="1" as="geometry" />
        </mxCell>
        <mxCell id="wn2-q3dEH-RJdqRPnM6W-4" value="&lt;font style=&quot;font-size: 16px;&quot;&gt;管理员用户&lt;/font&gt;" style="rounded=0;whiteSpace=wrap;html=1;" vertex="1" parent="1">
          <mxGeometry x="325" y="312" width="120" height="60" as="geometry" />
        </mxCell>
        <mxCell id="wn2-q3dEH-RJdqRPnM6W-7" value="加精" style="rounded=0;whiteSpace=wrap;html=1;" vertex="1" parent="1">
          <mxGeometry x="566" y="196" width="68" height="33" as="geometry" />
        </mxCell>
        <mxCell id="wn2-q3dEH-RJdqRPnM6W-10" value="置顶" style="rounded=0;whiteSpace=wrap;html=1;" vertex="1" parent="1">
          <mxGeometry x="566" y="240" width="68" height="33" as="geometry" />
        </mxCell>
        <mxCell id="wn2-q3dEH-RJdqRPnM6W-11" value="管理帖子" style="rounded=0;whiteSpace=wrap;html=1;" vertex="1" parent="1">
          <mxGeometry x="568" y="308" width="68" height="33" as="geometry" />
        </mxCell>
        <mxCell id="wn2-q3dEH-RJdqRPnM6W-12" value="数据统计" style="rounded=0;whiteSpace=wrap;html=1;" vertex="1" parent="1">
          <mxGeometry x="568" y="350" width="68" height="33" as="geometry" />
        </mxCell>
      </root>
    </mxGraphModel>
  </diagram>
</mxfile>
